<?xml version="1.0" standalone="no"?>
<svg _ngcontent-ng-c1068044098="" width="700" height="700" viewBox="0 0 800 800" xmlns="http://www.w3.org/2000/svg"><defs _ngcontent-ng-c1068044098=""><linearGradient _ngcontent-ng-c1068044098="" id="cerchio-gradient" x1="0%" y1="0%" x2="0%" y2="100%"><stop _ngcontent-ng-c1068044098="" offset="0%" stop-color="#9d030b"/><!----><stop _ngcontent-ng-c1068044098="" offset="100%" stop-color="#9d030b"/><!----><!----></linearGradient></defs><g _ngcontent-ng-c1068044098=""><path _ngcontent-ng-c1068044098="" d="M 92.875 5.560 C 55.450 12.334, 23.240 39.643, 10.442 75.450 C -8.218 127.660, 14.578 184.808, 64 209.719 C 88.985 222.312, 119.979 224.508, 146.742 215.582 C 163.568 209.970, 175.817 202.290, 189.054 189.054 C 198.930 179.178, 204.082 172.183, 209.719 161 C 222.312 136.015, 224.508 105.021, 215.582 78.258 C 202.981 40.476, 170.355 12.304, 131.317 5.496 C 120.844 3.670, 103.154 3.699, 92.875 5.560" fill="#263863" fill-opacity="1" stroke="#263863" stroke-width="0" transform="translate(165,213) rotate(0) scale(1)"/><!----><!----><!----></g><text _ngcontent-ng-c1068044098="" font-size="60" font-family="Calibri" font-weight="bold" fill="#ffffff" stroke="#ff8000" stroke-width="0" transform="translate(206,417) rotate(0) scale(5)"> S </text><!----><!----><text _ngcontent-ng-c1068044098="" font-size="60" font-family="Calibri" font-weight="bold" fill="#263863" stroke="none" stroke-width="0" transform="translate(395,318) rotate(0) scale(1.2500000000000002)"> SHARING </text><!----><!----><text _ngcontent-ng-c1068044098="" font-size="60" font-family="Calibri" font-weight="bold" fill="#ecb921" stroke="none" stroke-width="0" transform="translate(397,380) rotate(0) scale(1.02)"> TV EUROPA </text><!----><!----><!----></svg>